<svg width="72" height="46" viewBox="0 0 72 46" fill="none" xmlns="http://www.w3.org/2000/svg">
<path d="M9 5.75C7.7625 5.75 6.75 6.6125 6.75 7.66667V10.3141L31.0078 27.2766C33.9188 29.313 38.0953 29.313 41.0063 27.2766L65.25 10.3141V7.66667C65.25 6.6125 64.2375 5.75 63 5.75H9ZM6.75 17.7531V38.3333C6.75 39.3875 7.7625 40.25 9 40.25H63C64.2375 40.25 65.25 39.3875 65.25 38.3333V17.7531L45.2812 31.7208C39.8812 35.4943 32.1047 35.4943 26.7188 31.7208L6.75 17.7531ZM0 7.66667C0 3.43802 4.03594 0 9 0H63C67.9641 0 72 3.43802 72 7.66667V38.3333C72 42.562 67.9641 46 63 46H9C4.03594 46 0 42.562 0 38.3333V7.66667Z" fill="#E5E5E5"/>
</svg>
