<svg width="51" height="46" viewBox="0 0 51 46" fill="none" xmlns="http://www.w3.org/2000/svg">
<path d="M17.0583 37.0391C17.0583 37.2294 16.8218 37.3816 16.5236 37.3816C16.1843 37.4101 15.9478 37.2579 15.9478 37.0391C15.9478 36.8489 16.1843 36.6967 16.4825 36.6967C16.7909 36.6682 17.0583 36.8204 17.0583 37.0391ZM13.8605 36.6111C13.7885 36.8013 13.9942 37.0201 14.3026 37.0772C14.57 37.1723 14.8784 37.0772 14.9401 36.8869C15.0018 36.6967 14.8065 36.4779 14.498 36.3923C14.2306 36.3257 13.9325 36.4209 13.8605 36.6111ZM18.4052 36.4494C18.1071 36.516 17.9014 36.6967 17.9323 36.9155C17.9631 37.1057 18.2304 37.2294 18.5389 37.1628C18.8371 37.0962 19.0427 36.9155 19.0119 36.7252C18.981 36.5445 18.7034 36.4209 18.4052 36.4494ZM25.171 0C10.9095 0 0 10.016 0 23.2089C0 33.7575 7.17702 42.7843 17.4284 45.9612C18.7446 46.18 19.2073 45.4286 19.2073 44.8103C19.2073 44.2206 19.1764 40.9675 19.1764 38.97C19.1764 38.97 11.9788 40.3968 10.4673 36.1355C10.4673 36.1355 9.29516 33.3676 7.60887 32.6542C7.60887 32.6542 5.25423 31.1608 7.77339 31.1893C7.77339 31.1893 10.3337 31.3796 11.7423 33.6434C13.9942 37.315 17.7677 36.2592 19.2381 35.6314C19.4746 34.1095 20.1429 33.0537 20.8833 32.4259C15.1355 31.8362 9.33629 31.0657 9.33629 21.9153C9.33629 19.2995 10.1177 17.9869 11.7629 16.3128C11.4956 15.6945 10.6216 13.1454 12.0302 9.85427C14.1792 9.236 19.125 12.4225 19.125 12.4225C21.1815 11.8898 23.3921 11.614 25.5823 11.614C27.7724 11.614 29.9831 11.8898 32.0395 12.4225C32.0395 12.4225 36.9853 9.22649 39.1343 9.85427C40.5429 13.1549 39.669 15.6945 39.4016 16.3128C41.0468 17.9964 42.0544 19.309 42.0544 21.9153C42.0544 31.0942 35.9982 31.8266 30.2504 32.4259C31.1964 33.1773 31.9984 34.6041 31.9984 36.8394C31.9984 40.0449 31.9675 44.0113 31.9675 44.7913C31.9675 45.4096 32.4405 46.161 33.7464 45.9422C44.0286 42.7843 51 33.7575 51 23.2089C51 10.016 39.4325 0 25.171 0ZM9.99435 32.8064C9.86069 32.9015 9.89153 33.1203 10.0663 33.301C10.2308 33.4532 10.4673 33.5197 10.601 33.3961C10.7347 33.301 10.7038 33.0822 10.529 32.9015C10.3645 32.7493 10.128 32.6827 9.99435 32.8064ZM8.88387 32.0359C8.8119 32.1596 8.91472 32.3117 9.12036 32.4069C9.28488 32.502 9.49052 32.4734 9.5625 32.3403C9.63448 32.2166 9.53165 32.0644 9.32601 31.9693C9.12036 31.9122 8.95585 31.9408 8.88387 32.0359ZM12.2153 35.4221C12.0508 35.5458 12.1125 35.8311 12.349 36.0119C12.5855 36.2306 12.8837 36.2592 13.0173 36.107C13.151 35.9833 13.0893 35.698 12.8837 35.5172C12.6575 35.2985 12.349 35.2699 12.2153 35.4221ZM11.0431 34.0239C10.8786 34.119 10.8786 34.3663 11.0431 34.5851C11.2077 34.8038 11.4853 34.899 11.619 34.8038C11.7835 34.6802 11.7835 34.4329 11.619 34.2141C11.475 33.9953 11.2077 33.9002 11.0431 34.0239Z" fill="#E5E5E5"/>
</svg>
