<svg width="51" height="46" viewBox="0 0 51 46" fill="none" xmlns="http://www.w3.org/2000/svg">
<path d="M50.9866 22.9551C50.9866 24.5723 49.6584 25.8391 48.1531 25.8391H45.3195L45.3815 40.232C45.3815 40.4746 45.3638 40.7172 45.3372 40.9598V42.4062C45.3372 44.3918 43.7522 46 41.7952 46H40.3784C40.281 46 40.1836 46 40.0862 45.991C39.9623 46 39.8383 46 39.7143 46H36.8365H34.7113C32.7543 46 31.1693 44.3918 31.1693 42.4062V40.25V34.5C31.1693 32.9098 29.9031 31.625 28.3357 31.625H22.6686C21.1013 31.625 19.835 32.9098 19.835 34.5V40.25V42.4062C19.835 44.3918 18.25 46 16.2931 46H14.1679H11.3432C11.2103 46 11.0775 45.991 10.9447 45.982C10.8384 45.991 10.7322 46 10.6259 46H9.20912C7.25218 46 5.66715 44.3918 5.66715 42.4062V32.3438C5.66715 32.2629 5.66715 32.173 5.676 32.0922V25.8391H2.83357C1.23969 25.8391 0 24.5812 0 22.9551C0 22.1465 0.265648 21.4277 0.885492 20.7988L23.5895 0.71875C24.2094 0.0898438 24.9177 0 25.5376 0C26.1574 0 26.8658 0.179688 27.3971 0.628906L50.0126 20.7988C50.721 21.4277 51.0752 22.1465 50.9866 22.9551Z" fill="#E5E5E5"/>
</svg>
