<svg width="93" height="131" viewBox="0 0 93 131" fill="none" xmlns="http://www.w3.org/2000/svg">
<path d="M51.7403 34.5649C48.7276 31.8166 43.835 31.8166 40.8223 34.5649L2.25953 69.7442C-0.753178 72.4926 -0.753178 76.956 2.25953 79.7043C5.27225 82.4527 10.1649 82.4527 13.1776 79.7043L38.5808 56.508V123.964C38.5808 127.856 42.0273 131 46.2933 131C50.5593 131 54.0059 127.856 54.0059 123.964V56.508L79.4091 79.6824C82.4218 82.4308 87.3144 82.4308 90.3272 79.6824C93.3399 76.934 93.3399 72.4706 90.3272 69.7222L51.7644 34.543L51.7403 34.5649Z" fill="#FBFBFB"/>
<path d="M42.61 6.78125H45.5299V16.1758C45.5299 17.2695 45.2956 18.1908 44.8268 18.9395C44.3646 19.6882 43.7233 20.2513 42.903 20.6289C42.0892 21.0065 41.1517 21.1953 40.0905 21.1953C39.0293 21.1953 38.0853 21.0065 37.2585 20.6289C36.4381 20.2513 35.7936 19.6882 35.3249 18.9395C34.8626 18.1908 34.6315 17.2695 34.6315 16.1758V6.78125H37.5612V16.1758C37.5612 16.8138 37.6621 17.3346 37.8639 17.7383C38.0657 18.1419 38.3555 18.4382 38.7331 18.627C39.1172 18.8158 39.5697 18.9102 40.0905 18.9102C40.6243 18.9102 41.0768 18.8158 41.4479 18.627C41.8255 18.4382 42.112 18.1419 42.3073 17.7383C42.5091 17.3346 42.61 16.8138 42.61 16.1758V6.78125ZM53.4792 15.9316H49.8561V13.6465H53.4792C54.0391 13.6465 54.4948 13.5553 54.8463 13.373C55.1979 13.1842 55.4551 12.9238 55.6178 12.5918C55.7806 12.2598 55.862 11.8854 55.862 11.4688C55.862 11.0456 55.7806 10.6517 55.6178 10.2871C55.4551 9.92253 55.1979 9.62956 54.8463 9.4082C54.4948 9.18685 54.0391 9.07617 53.4792 9.07617H50.8717V21H47.942V6.78125H53.4792C54.5924 6.78125 55.5462 6.98307 56.3405 7.38672C57.1413 7.78385 57.7532 8.33398 58.1764 9.03711C58.5996 9.74023 58.8112 10.5443 58.8112 11.4492C58.8112 12.3672 58.5996 13.1615 58.1764 13.832C57.7532 14.5026 57.1413 15.0202 56.3405 15.3848C55.5462 15.7493 54.5924 15.9316 53.4792 15.9316Z" fill="#FBFBFB"/>
</svg>
